<?xml version='1.0' encoding='utf-8'?>
<svg xmlns:xlink="http://www.w3.org/1999/xlink" xmlns="http://www.w3.org/2000/svg" id="chart-56321fb8-c1d6-4c26-861a-b2ca3718e334" class="pygal-chart" viewBox="0 0 800 400"><!--Generated with pygal 2.4.0 (lxml) ©Kozea 2012-2016 on 2018-08-15--><!--http://pygal.org--><!--http://github.com/Kozea/pygal--><defs><style type="text/css">#chart-56321fb8-c1d6-4c26-861a-b2ca3718e334{-webkit-user-select:none;-webkit-font-smoothing:antialiased;font-family:Consolas,"Liberation Mono",Menlo,Courier,monospace}#chart-56321fb8-c1d6-4c26-861a-b2ca3718e334 .title{font-family:Consolas,"Liberation Mono",Menlo,Courier,monospace;font-size:16px}#chart-56321fb8-c1d6-4c26-861a-b2ca3718e334 .legends .legend text{font-family:Consolas,"Liberation Mono",Menlo,Courier,monospace;font-size:14px}#chart-56321fb8-c1d6-4c26-861a-b2ca3718e334 .axis text{font-family:Consolas,"Liberation Mono",Menlo,Courier,monospace;font-size:10px}#chart-56321fb8-c1d6-4c26-861a-b2ca3718e334 .axis text.major{font-family:Consolas,"Liberation Mono",Menlo,Courier,monospace;font-size:10px}#chart-56321fb8-c1d6-4c26-861a-b2ca3718e334 .text-overlay text.value{font-family:Consolas,"Liberation Mono",Menlo,Courier,monospace;font-size:16px}#chart-56321fb8-c1d6-4c26-861a-b2ca3718e334 .text-overlay text.label{font-family:Consolas,"Liberation Mono",Menlo,Courier,monospace;font-size:10px}#chart-56321fb8-c1d6-4c26-861a-b2ca3718e334 .tooltip{font-family:Consolas,"Liberation Mono",Menlo,Courier,monospace;font-size:14px}#chart-56321fb8-c1d6-4c26-861a-b2ca3718e334 text.no_data{font-family:Consolas,"Liberation Mono",Menlo,Courier,monospace;font-size:64px}
#chart-56321fb8-c1d6-4c26-861a-b2ca3718e334{background-color:rgba(249,249,249,1)}#chart-56321fb8-c1d6-4c26-861a-b2ca3718e334 path,#chart-56321fb8-c1d6-4c26-861a-b2ca3718e334 line,#chart-56321fb8-c1d6-4c26-861a-b2ca3718e334 rect,#chart-56321fb8-c1d6-4c26-861a-b2ca3718e334 circle{-webkit-transition:150ms;-moz-transition:150ms;transition:150ms}#chart-56321fb8-c1d6-4c26-861a-b2ca3718e334 .graph &gt; .background{fill:rgba(249,249,249,1)}#chart-56321fb8-c1d6-4c26-861a-b2ca3718e334 .plot &gt; .background{fill:rgba(255,255,255,1)}#chart-56321fb8-c1d6-4c26-861a-b2ca3718e334 .graph{fill:rgba(0,0,0,.87)}#chart-56321fb8-c1d6-4c26-861a-b2ca3718e334 text.no_data{fill:rgba(0,0,0,1)}#chart-56321fb8-c1d6-4c26-861a-b2ca3718e334 .title{fill:rgba(0,0,0,1)}#chart-56321fb8-c1d6-4c26-861a-b2ca3718e334 .legends .legend text{fill:rgba(0,0,0,.87)}#chart-56321fb8-c1d6-4c26-861a-b2ca3718e334 .legends .legend:hover text{fill:rgba(0,0,0,1)}#chart-56321fb8-c1d6-4c26-861a-b2ca3718e334 .axis .line{stroke:rgba(0,0,0,1)}#chart-56321fb8-c1d6-4c26-861a-b2ca3718e334 .axis .guide.line{stroke:rgba(0,0,0,.54)}#chart-56321fb8-c1d6-4c26-861a-b2ca3718e334 .axis .major.line{stroke:rgba(0,0,0,.87)}#chart-56321fb8-c1d6-4c26-861a-b2ca3718e334 .axis text.major{fill:rgba(0,0,0,1)}#chart-56321fb8-c1d6-4c26-861a-b2ca3718e334 .axis.y .guides:hover .guide.line,#chart-56321fb8-c1d6-4c26-861a-b2ca3718e334 .line-graph .axis.x .guides:hover .guide.line,#chart-56321fb8-c1d6-4c26-861a-b2ca3718e334 .stackedline-graph .axis.x .guides:hover .guide.line,#chart-56321fb8-c1d6-4c26-861a-b2ca3718e334 .xy-graph .axis.x .guides:hover .guide.line{stroke:rgba(0,0,0,1)}#chart-56321fb8-c1d6-4c26-861a-b2ca3718e334 .axis .guides:hover text{fill:rgba(0,0,0,1)}#chart-56321fb8-c1d6-4c26-861a-b2ca3718e334 .reactive{fill-opacity:.7;stroke-opacity:.8}#chart-56321fb8-c1d6-4c26-861a-b2ca3718e334 .ci{stroke:rgba(0,0,0,.87)}#chart-56321fb8-c1d6-4c26-861a-b2ca3718e334 .reactive.active,#chart-56321fb8-c1d6-4c26-861a-b2ca3718e334 .active .reactive{fill-opacity:.8;stroke-opacity:.9;stroke-width:4}#chart-56321fb8-c1d6-4c26-861a-b2ca3718e334 .ci .reactive.active{stroke-width:1.5}#chart-56321fb8-c1d6-4c26-861a-b2ca3718e334 .series text{fill:rgba(0,0,0,1)}#chart-56321fb8-c1d6-4c26-861a-b2ca3718e334 .tooltip rect{fill:rgba(255,255,255,1);stroke:rgba(0,0,0,1);-webkit-transition:opacity 150ms;-moz-transition:opacity 150ms;transition:opacity 150ms}#chart-56321fb8-c1d6-4c26-861a-b2ca3718e334 .tooltip .label{fill:rgba(0,0,0,.87)}#chart-56321fb8-c1d6-4c26-861a-b2ca3718e334 .tooltip .label{fill:rgba(0,0,0,.87)}#chart-56321fb8-c1d6-4c26-861a-b2ca3718e334 .tooltip .legend{font-size:.8em;fill:rgba(0,0,0,.54)}#chart-56321fb8-c1d6-4c26-861a-b2ca3718e334 .tooltip .x_label{font-size:.6em;fill:rgba(0,0,0,1)}#chart-56321fb8-c1d6-4c26-861a-b2ca3718e334 .tooltip .xlink{font-size:.5em;text-decoration:underline}#chart-56321fb8-c1d6-4c26-861a-b2ca3718e334 .tooltip .value{font-size:1.5em}#chart-56321fb8-c1d6-4c26-861a-b2ca3718e334 .bound{font-size:.5em}#chart-56321fb8-c1d6-4c26-861a-b2ca3718e334 .max-value{font-size:.75em;fill:rgba(0,0,0,.54)}#chart-56321fb8-c1d6-4c26-861a-b2ca3718e334 .map-element{fill:rgba(255,255,255,1);stroke:rgba(0,0,0,.54) !important}#chart-56321fb8-c1d6-4c26-861a-b2ca3718e334 .map-element .reactive{fill-opacity:inherit;stroke-opacity:inherit}#chart-56321fb8-c1d6-4c26-861a-b2ca3718e334 .color-0,#chart-56321fb8-c1d6-4c26-861a-b2ca3718e334 .color-0 a:visited{stroke:#F44336;fill:#F44336}#chart-56321fb8-c1d6-4c26-861a-b2ca3718e334 .color-1,#chart-56321fb8-c1d6-4c26-861a-b2ca3718e334 .color-1 a:visited{stroke:#3F51B5;fill:#3F51B5}#chart-56321fb8-c1d6-4c26-861a-b2ca3718e334 .color-2,#chart-56321fb8-c1d6-4c26-861a-b2ca3718e334 .color-2 a:visited{stroke:#009688;fill:#009688}#chart-56321fb8-c1d6-4c26-861a-b2ca3718e334 .color-3,#chart-56321fb8-c1d6-4c26-861a-b2ca3718e334 .color-3 a:visited{stroke:#FFC107;fill:#FFC107}#chart-56321fb8-c1d6-4c26-861a-b2ca3718e334 .color-4,#chart-56321fb8-c1d6-4c26-861a-b2ca3718e334 .color-4 a:visited{stroke:#FF5722;fill:#FF5722}#chart-56321fb8-c1d6-4c26-861a-b2ca3718e334 .color-5,#chart-56321fb8-c1d6-4c26-861a-b2ca3718e334 .color-5 a:visited{stroke:#9C27B0;fill:#9C27B0}#chart-56321fb8-c1d6-4c26-861a-b2ca3718e334 .text-overlay .color-0 text{fill:black}#chart-56321fb8-c1d6-4c26-861a-b2ca3718e334 .text-overlay .color-1 text{fill:black}#chart-56321fb8-c1d6-4c26-861a-b2ca3718e334 .text-overlay .color-2 text{fill:black}#chart-56321fb8-c1d6-4c26-861a-b2ca3718e334 .text-overlay .color-3 text{fill:black}#chart-56321fb8-c1d6-4c26-861a-b2ca3718e334 .text-overlay .color-4 text{fill:black}#chart-56321fb8-c1d6-4c26-861a-b2ca3718e334 .text-overlay .color-5 text{fill:black}
#chart-56321fb8-c1d6-4c26-861a-b2ca3718e334 text.no_data{text-anchor:middle}#chart-56321fb8-c1d6-4c26-861a-b2ca3718e334 .guide.line{fill:none}#chart-56321fb8-c1d6-4c26-861a-b2ca3718e334 .centered{text-anchor:middle}#chart-56321fb8-c1d6-4c26-861a-b2ca3718e334 .title{text-anchor:middle}#chart-56321fb8-c1d6-4c26-861a-b2ca3718e334 .legends .legend text{fill-opacity:1}#chart-56321fb8-c1d6-4c26-861a-b2ca3718e334 .axis.x text{text-anchor:middle}#chart-56321fb8-c1d6-4c26-861a-b2ca3718e334 .axis.x:not(.web) text[transform]{text-anchor:start}#chart-56321fb8-c1d6-4c26-861a-b2ca3718e334 .axis.x:not(.web) text[transform].backwards{text-anchor:end}#chart-56321fb8-c1d6-4c26-861a-b2ca3718e334 .axis.y text{text-anchor:end}#chart-56321fb8-c1d6-4c26-861a-b2ca3718e334 .axis.y text[transform].backwards{text-anchor:start}#chart-56321fb8-c1d6-4c26-861a-b2ca3718e334 .axis.y2 text{text-anchor:start}#chart-56321fb8-c1d6-4c26-861a-b2ca3718e334 .axis.y2 text[transform].backwards{text-anchor:end}#chart-56321fb8-c1d6-4c26-861a-b2ca3718e334 .axis .guide.line{stroke-dasharray:4,4}#chart-56321fb8-c1d6-4c26-861a-b2ca3718e334 .axis .major.guide.line{stroke-dasharray:6,6}#chart-56321fb8-c1d6-4c26-861a-b2ca3718e334 .horizontal .axis.y .guide.line,#chart-56321fb8-c1d6-4c26-861a-b2ca3718e334 .horizontal .axis.y2 .guide.line,#chart-56321fb8-c1d6-4c26-861a-b2ca3718e334 .vertical .axis.x .guide.line{opacity:0}#chart-56321fb8-c1d6-4c26-861a-b2ca3718e334 .horizontal .axis.always_show .guide.line,#chart-56321fb8-c1d6-4c26-861a-b2ca3718e334 .vertical .axis.always_show .guide.line{opacity:1 !important}#chart-56321fb8-c1d6-4c26-861a-b2ca3718e334 .axis.y .guides:hover .guide.line,#chart-56321fb8-c1d6-4c26-861a-b2ca3718e334 .axis.y2 .guides:hover .guide.line,#chart-56321fb8-c1d6-4c26-861a-b2ca3718e334 .axis.x .guides:hover .guide.line{opacity:1}#chart-56321fb8-c1d6-4c26-861a-b2ca3718e334 .axis .guides:hover text{opacity:1}#chart-56321fb8-c1d6-4c26-861a-b2ca3718e334 .nofill{fill:none}#chart-56321fb8-c1d6-4c26-861a-b2ca3718e334 .subtle-fill{fill-opacity:.2}#chart-56321fb8-c1d6-4c26-861a-b2ca3718e334 .dot{stroke-width:1px;fill-opacity:1}#chart-56321fb8-c1d6-4c26-861a-b2ca3718e334 .dot.active{stroke-width:5px}#chart-56321fb8-c1d6-4c26-861a-b2ca3718e334 .dot.negative{fill:transparent}#chart-56321fb8-c1d6-4c26-861a-b2ca3718e334 text,#chart-56321fb8-c1d6-4c26-861a-b2ca3718e334 tspan{stroke:none !important}#chart-56321fb8-c1d6-4c26-861a-b2ca3718e334 .series text.active{opacity:1}#chart-56321fb8-c1d6-4c26-861a-b2ca3718e334 .tooltip rect{fill-opacity:.95;stroke-width:.5}#chart-56321fb8-c1d6-4c26-861a-b2ca3718e334 .tooltip text{fill-opacity:1}#chart-56321fb8-c1d6-4c26-861a-b2ca3718e334 .showable{visibility:hidden}#chart-56321fb8-c1d6-4c26-861a-b2ca3718e334 .showable.shown{visibility:visible}#chart-56321fb8-c1d6-4c26-861a-b2ca3718e334 .gauge-background{fill:rgba(229,229,229,1);stroke:none}#chart-56321fb8-c1d6-4c26-861a-b2ca3718e334 .bg-lines{stroke:rgba(249,249,249,1);stroke-width:2px}</style><script type="text/javascript">window.pygal = window.pygal || {};window.pygal.config = window.pygal.config || {};window.pygal.config['56321fb8-c1d6-4c26-861a-b2ca3718e334'] = {"allow_interruptions": false, "box_mode": "extremes", "classes": ["pygal-chart"], "css": ["file://style.css", "file://graph.css"], "defs": [], "disable_xml_declaration": false, "dots_size": 2.5, "dynamic_print_values": false, "explicit_size": false, "fill": false, "force_uri_protocol": "https", "formatter": null, "half_pie": false, "height": 400, "include_x_axis": false, "inner_radius": 0, "interpolate": null, "interpolation_parameters": {}, "interpolation_precision": 250, "inverse_y_axis": false, "js": ["//kozea.github.io/pygal.js/2.0.x/pygal-tooltips.min.js"], "legend_at_bottom": false, "legend_at_bottom_columns": null, "legend_box_size": 12, "logarithmic": false, "margin": 20, "margin_bottom": null, "margin_left": null, "margin_right": null, "margin_top": null, "max_scale": 16, "min_scale": 4, "missing_value_fill_truncation": "x", "no_data_text": "No data", "no_prefix": false, "order_min": null, "pretty_print": false, "print_labels": false, "print_values": false, "print_values_position": "center", "print_zeroes": true, "range": null, "rounded_bars": null, "secondary_range": null, "show_dots": false, "show_legend": true, "show_minor_x_labels": true, "show_minor_y_labels": true, "show_only_major_dots": false, "show_x_guides": false, "show_x_labels": true, "show_y_guides": true, "show_y_labels": true, "spacing": 10, "stack_from_top": false, "strict": false, "stroke": true, "stroke_style": null, "style": {"background": "rgba(249, 249, 249, 1)", "ci_colors": [], "colors": ["#F44336", "#3F51B5", "#009688", "#FFC107", "#FF5722", "#9C27B0", "#03A9F4", "#8BC34A", "#FF9800", "#E91E63", "#2196F3", "#4CAF50", "#FFEB3B", "#673AB7", "#00BCD4", "#CDDC39", "#9E9E9E", "#607D8B"], "font_family": "Consolas, \"Liberation Mono\", Menlo, Courier, monospace", "foreground": "rgba(0, 0, 0, .87)", "foreground_strong": "rgba(0, 0, 0, 1)", "foreground_subtle": "rgba(0, 0, 0, .54)", "guide_stroke_dasharray": "4,4", "label_font_family": "Consolas, \"Liberation Mono\", Menlo, Courier, monospace", "label_font_size": 10, "legend_font_family": "Consolas, \"Liberation Mono\", Menlo, Courier, monospace", "legend_font_size": 14, "major_guide_stroke_dasharray": "6,6", "major_label_font_family": "Consolas, \"Liberation Mono\", Menlo, Courier, monospace", "major_label_font_size": 10, "no_data_font_family": "Consolas, \"Liberation Mono\", Menlo, Courier, monospace", "no_data_font_size": 64, "opacity": ".7", "opacity_hover": ".8", "plot_background": "rgba(255, 255, 255, 1)", "stroke_opacity": ".8", "stroke_opacity_hover": ".9", "title_font_family": "Consolas, \"Liberation Mono\", Menlo, Courier, monospace", "title_font_size": 16, "tooltip_font_family": "Consolas, \"Liberation Mono\", Menlo, Courier, monospace", "tooltip_font_size": 14, "transition": "150ms", "value_background": "rgba(229, 229, 229, 1)", "value_colors": [], "value_font_family": "Consolas, \"Liberation Mono\", Menlo, Courier, monospace", "value_font_size": 16, "value_label_font_family": "Consolas, \"Liberation Mono\", Menlo, Courier, monospace", "value_label_font_size": 10}, "title": "Plot of GDP for select countries spanning 1960 to 2015", "tooltip_border_radius": 0, "tooltip_fancy_mode": true, "truncate_label": null, "truncate_legend": null, "width": 800, "x_label_rotation": 0, "x_labels": null, "x_labels_major": null, "x_labels_major_count": null, "x_labels_major_every": null, "x_title": "Year", "xrange": null, "y_label_rotation": 0, "y_labels": null, "y_labels_major": null, "y_labels_major_count": null, "y_labels_major_every": null, "y_title": "GDP in USD", "zero": 0, "legends": ["China", "Germany", "France", "Japan", "Russian Federation", "United States"]}</script><script type="text/javascript" xlink:href="https://kozea.github.io/pygal.js/2.0.x/pygal-tooltips.min.js"/></defs><title>Plot of GDP for select countries spanning 1960 to 2015</title><g class="graph xy-graph vertical"><rect class="background" height="400" width="800" x="0" y="0"/><g class="plot" transform="translate(246, 46)"><rect class="background" height="288" width="534.0" x="0" y="0"/><g class="axis y always_show"><path class="line" d="M0.000000 288.000000 h534.000000"/><g class="guides"><path class="guide line" d="M0.000000 252.210423 h534.000000"/><text class="" x="-5" y="255.71042269472204">2e+12</text><title>2e+12</title></g><g class="guides"><path class="guide line" d="M0.000000 221.273950 h534.000000"/><text class="" x="-5" y="224.77395048599809">4e+12</text><title>4e+12</title></g><g class="guides"><path class="guide line" d="M0.000000 190.337478 h534.000000"/><text class="" x="-5" y="193.8374782772741">6e+12</text><title>6e+12</title></g><g class="guides"><path class="guide line" d="M0.000000 159.401006 h534.000000"/><text class="" x="-5" y="162.90100606855015">8e+12</text><title>8e+12</title></g><g class="guides"><path class="guide line" d="M0.000000 128.464534 h534.000000"/><text class="" x="-5" y="131.9645338598262">1e+13</text><title>1e+13</title></g><g class="guides"><path class="guide line" d="M0.000000 97.528062 h534.000000"/><text class="" x="-5" y="101.02806165110223">1.2e+13</text><title>1.2e+13</title></g><g class="guides"><path class="guide line" d="M0.000000 66.591589 h534.000000"/><text class="" x="-5" y="70.09158944237828">1.4e+13</text><title>1.4e+13</title></g><g class="guides"><path class="guide line" d="M0.000000 35.655117 h534.000000"/><text class="" x="-5" y="39.15511723365432">1.6e+13</text><title>1.6e+13</title></g></g><g class="axis x"><path class="line" d="M0.000000 0.000000 v288.000000"/><g class="guides"><path class="guide line" d="M10.269231 0.000000 v288.000000"/><text class="" x="10.269230769229953" y="303.0">1960</text><title>1960</title></g><g class="guides"><path class="guide line" d="M103.625874 0.000000 v288.000000"/><text class="" x="103.62587412587361" y="303.0">1970</text><title>1970</title></g><g class="guides"><path class="guide line" d="M196.982517 0.000000 v288.000000"/><text class="" x="196.98251748251724" y="303.0">1980</text><title>1980</title></g><g class="guides"><path class="guide line" d="M290.339161 0.000000 v288.000000"/><text class="" x="290.3391608391609" y="303.0">1990</text><title>1990</title></g><g class="guides"><path class="guide line" d="M383.695804 0.000000 v288.000000"/><text class="" x="383.69580419580456" y="303.0">2000</text><title>2000</title></g><g class="guides"><path class="guide line" d="M477.052448 0.000000 v288.000000"/><text class="" x="477.0524475524482" y="303.0">2010</text><title>2010</title></g></g><g class="series serie-0 color-0"><path class="line reactive nofill" d="M10.269231 282.231421 L19.604895 282.380335 28.940559 282.424758 38.276224 282.371978 47.611888 282.233306 56.947552 282.068617 66.283217 281.973174 75.618881 282.032300 84.954545 282.064219 94.290210 281.929254 103.625874 281.731455 112.961538 281.622314 122.297203 281.411978 131.632867 281.031304 140.968531 280.946461 150.304196 280.654003 159.639860 280.801477 168.975524 280.480960 178.311189 280.851687 187.646853 280.411229 196.982517 280.213344 206.318182 280.140349 215.653846 279.998335 224.989510 279.605442 234.325175 279.154822 243.660839 278.390722 252.996503 278.524893 262.332168 278.949589 271.667832 278.340574 281.003497 277.795550 290.339161 277.594216 299.674825 277.246459 309.010490 276.573915 318.346154 276.296400 327.681818 274.449709 337.017483 271.823651 346.353147 269.831157 355.688811 268.325865 365.024476 267.287622 374.360140 266.295025 383.695804 264.503649 393.031469 262.539647 402.367133 260.533726 411.702797 257.625388 421.038462 253.111447 430.374126 248.055654 439.709790 240.922013 449.045455 228.650907 458.381119 212.636023 467.716783 204.886592 477.052448 189.724008 486.388112 167.252219 495.723776 152.260559 505.059441 136.344053 514.395105 123.033636 523.730769 115.062854"/></g><g class="series serie-1 color-1"><path class="line reactive nofill" d="M103.625874 279.820884 L112.961538 279.294701 122.297203 278.527043 131.632867 277.008062 140.968531 276.284891 150.304196 275.586330 159.639860 275.137628 168.975524 273.893394 178.311189 271.736472 187.646853 269.565613 196.982517 268.503193 206.318182 270.811858 215.653846 271.180080 224.989510 271.270878 234.325175 271.973136 243.660839 271.858749 252.996503 267.024352 262.332168 263.142444 271.667832 261.554320 281.003497 261.589278 290.339161 255.845922 299.674825 254.347050 309.010490 250.305819 318.346154 251.149920 327.681818 249.024430 337.017483 243.059105 346.353147 244.419536 355.688811 248.827674 365.024476 248.448084 374.360140 249.117394 383.695804 252.984608 393.031469 252.973780 402.367133 250.986266 411.702797 244.387672 421.038462 239.538070 430.374126 238.885929 439.709790 236.704289 449.045455 229.936936 458.381119 225.104350 467.716783 230.276309 477.052448 230.287292 486.388112 225.025616 495.723776 228.395217 505.059441 225.213401 514.395105 223.311272 523.730769 231.239052"/></g><g class="series serie-2 color-2"><path class="line reactive nofill" d="M10.269231 282.177787 L19.604895 282.089691 28.940559 281.966455 38.276224 281.823570 47.611888 281.678857 56.947552 281.566644 66.283217 281.436154 75.618881 281.298967 84.954545 281.138391 94.290210 280.970127 103.625874 280.842917 112.961538 280.570444 122.297203 279.986997 131.632867 279.041903 140.968531 278.714843 150.304196 277.547378 159.639860 277.370901 168.975524 276.782273 178.311189 275.286200 187.646853 273.621029 196.982517 272.264604 206.318182 273.593867 215.653846 274.069562 224.989510 274.456036 234.325175 274.907754 243.660839 274.558977 252.996503 271.165880 262.332168 268.631997 271.667832 267.315155 281.003497 267.212756 290.339161 263.420253 299.674825 263.416232 309.010490 261.356481 318.346154 262.572749 327.681818 261.465996 337.017483 258.244736 346.353147 258.177295 355.688811 260.552288 365.024476 259.778103 374.360140 259.940210 383.695804 261.979542 393.031469 261.766390 402.367133 259.939282 411.702797 254.559738 421.038462 250.290660 430.374126 249.059852 439.709790 247.183091 449.045455 241.953281 458.381119 237.925971 467.716783 241.478096 477.052448 242.202629 486.388112 238.869069 495.723776 241.670057 505.059441 239.704199 514.395105 239.384316 523.730769 245.687777"/></g><g class="series serie-3 color-3"><path class="line reactive nofill" d="M10.269231 282.461538 L19.604895 282.319211 28.940559 282.207617 38.276224 282.071881 47.611888 281.882382 56.947552 281.740055 66.283217 281.513016 75.618881 281.232206 84.954545 280.879236 94.290210 280.483203 103.625874 279.912935 112.961538 279.493994 122.297203 278.309390 131.632867 276.574581 140.968531 275.851410 150.304196 275.213840 159.639860 274.230911 168.975524 272.173651 178.311189 267.729054 187.646853 267.099373 196.982517 266.333077 206.318182 264.562273 215.653846 265.871350 224.989510 264.304882 234.325175 263.121562 243.660839 261.730658 252.996503 251.420615 262.332168 244.704616 271.667832 236.504130 281.003497 236.478453 290.339161 235.138131 299.674825 228.438837 309.010490 223.551030 318.346154 214.855251 327.681818 208.120536 337.017483 200.640406 346.353147 210.350437 355.688811 216.257911 365.024476 222.595402 374.360140 214.582392 383.695804 209.963576 393.031469 218.801198 402.367133 221.570631 411.702797 216.588003 421.038462 211.129881 430.374126 212.428130 439.709790 215.755657 449.045455 215.761845 458.381119 208.138634 467.716783 205.262161 477.052448 198.091396 486.388112 191.745242 495.723776 190.998745 505.059441 207.215489 514.395105 212.052407 523.730769 219.367336"/></g><g class="series serie-4 color-4"><path class="line reactive nofill" d="M281.003497 275.312233 L290.339161 275.152694 299.674825 275.134921 309.010490 276.027005 318.346154 276.416913 327.681818 277.035751 337.017483 277.028728 346.353147 277.087677 355.688811 276.883388 365.024476 278.955730 374.360140 280.116575 383.695804 279.129670 393.031469 278.404287 402.367133 277.808652 411.702797 276.490170 421.038462 274.004904 430.374126 271.328900 439.709790 267.834408 449.045455 263.042674 458.381119 257.456475 467.716783 264.234811 477.052448 259.559072 486.388112 251.718997 495.723776 249.578502 505.059441 248.642983 514.395105 251.731371 523.730769 262.635704"/></g><g class="series serie-5 color-5"><path class="line reactive nofill" d="M10.269231 274.743002 L19.604895 274.433638 28.940559 273.787065 38.276224 273.268879 47.611888 272.538779 56.947552 271.643168 66.283217 270.540282 75.618881 269.817916 84.954545 268.568082 94.290210 267.370841 103.625874 266.504929 112.961538 265.083553 122.297203 263.309656 131.632867 261.049746 140.968531 259.189227 150.304196 257.022282 159.639860 254.103889 168.975524 250.880928 178.311189 246.694914 187.646853 242.432332 196.982517 238.868914 206.318182 233.479008 215.653846 231.405800 224.989510 226.871286 234.325175 220.644548 243.660839 215.910649 252.996503 212.145216 262.332168 207.813182 271.667832 201.897974 281.003497 195.632410 290.339161 190.653185 299.674825 187.645386 309.010490 181.995459 318.346154 176.745230 327.681818 170.093270 337.017483 164.597405 346.353147 157.851089 355.688811 149.988275 365.024476 142.553467 374.360140 133.714144 383.695804 124.059180 393.031469 118.846385 402.367133 113.344333 411.702797 105.096670 421.038462 93.275844 430.374126 80.610452 439.709790 68.820562 449.045455 59.203960 458.381119 55.476115 467.716783 60.115039 477.052448 51.674023 486.388112 43.112354 495.723776 33.252900 505.059441 25.396583 514.395105 14.802388 523.730769 5.538462"/></g></g><g class="titles"><text class="title plot_title" x="400.0" y="26">Plot of GDP for select countries spanning 1960 to 2015</text><text class="title" x="513.0" y="380">Year</text><text class="title" x="148.0" y="216.0" transform="rotate(-90 148.000000 190.000000)">GDP in USD</text></g><g class="plot overlay" transform="translate(246, 46)"><g class="series serie-0 color-0"/><g class="series serie-1 color-1"/><g class="series serie-2 color-2"/><g class="series serie-3 color-3"/><g class="series serie-4 color-4"/><g class="series serie-5 color-5"/></g><g class="plot text-overlay" transform="translate(246, 46)"><g class="series serie-0 color-0"/><g class="series serie-1 color-1"/><g class="series serie-2 color-2"/><g class="series serie-3 color-3"/><g class="series serie-4 color-4"/><g class="series serie-5 color-5"/></g><g class="plot tooltip-overlay" transform="translate(246, 46)"><g class="tooltip" style="opacity: 0" transform="translate(0 0)"><rect class="tooltip-box" height="0" rx="0" ry="0" width="0"/><g class="text"/></g></g><g class="legends" transform="translate(10, 56)"><g class="legend reactive activate-serie" id="activate-serie-0"><rect class="color-0 reactive" height="12" width="12" x="0.0" y="1.0"/><text x="17.0" y="11.2">China</text></g><g class="legend reactive activate-serie" id="activate-serie-1"><rect class="color-1 reactive" height="12" width="12" x="0.0" y="22.0"/><text x="17.0" y="32.2">Germany</text></g><g class="legend reactive activate-serie" id="activate-serie-2"><rect class="color-2 reactive" height="12" width="12" x="0.0" y="43.0"/><text x="17.0" y="53.2">France</text></g><g class="legend reactive activate-serie" id="activate-serie-3"><rect class="color-3 reactive" height="12" width="12" x="0.0" y="64.0"/><text x="17.0" y="74.2">Japan</text></g><g class="legend reactive activate-serie" id="activate-serie-4"><rect class="color-4 reactive" height="12" width="12" x="0.0" y="85.0"/><text x="17.0" y="95.2">Russian Federa…</text><title>Russian Federation</title></g><g class="legend reactive activate-serie" id="activate-serie-5"><rect class="color-5 reactive" height="12" width="12" x="0.0" y="106.0"/><text x="17.0" y="116.2">United States</text></g></g><g class="legends" transform="translate(790, 56)"/></g></svg>